<svg width="25" height="25" viewBox="0 0 25 25" fill="none" xmlns="http://www.w3.org/2000/svg">
<path d="M12.5 4.6665C11.713 4.6665 10.9437 4.89988 10.2893 5.33711C9.63497 5.77435 9.12495 6.39581 8.82377 7.12291C8.5226 7.85001 8.4438 8.65008 8.59733 9.42197C8.75087 10.1939 9.12985 10.9029 9.68635 11.4594C10.2428 12.0159 10.9519 12.3948 11.7237 12.5484C12.4956 12.7019 13.2957 12.6231 14.0228 12.3219C14.7499 12.0208 15.3714 11.5107 15.8086 10.8564C16.2458 10.202 16.4792 9.43268 16.4792 8.64567C16.4792 7.59033 16.06 6.57821 15.3137 5.83197C14.5675 5.08574 13.5554 4.6665 12.5 4.6665ZM12.5 11.2359C11.9877 11.2359 11.4869 11.084 11.061 10.7994C10.635 10.5148 10.303 10.1102 10.1069 9.63693C9.91089 9.16362 9.85959 8.6428 9.95954 8.14033C10.0595 7.63787 10.3062 7.17632 10.6684 6.81407C11.0307 6.45181 11.4922 6.20511 11.9947 6.10516C12.4972 6.00522 13.018 6.05651 13.4913 6.25257C13.9646 6.44862 14.3692 6.78062 14.6538 7.20659C14.9384 7.63256 15.0903 8.13336 15.0903 8.64567C15.0885 9.33145 14.8148 9.98852 14.3292 10.4728C13.8436 10.9571 13.1858 11.229 12.5 11.229V11.2359Z" fill="#373737"/>
<path d="M12.5 1.38867C10.3369 1.39048 8.26244 2.24818 6.72968 3.77443C5.19692 5.30069 4.3304 7.37147 4.3194 9.5345C4.3194 12.7776 6.13884 15.4928 7.47218 17.472L7.71523 17.8331C9.04181 19.7558 10.4649 21.61 11.9791 23.3887L12.5069 24.0067L13.0347 23.3887C14.5487 21.6098 15.9718 19.7556 17.2986 17.8331L17.5416 17.4651C18.868 15.4859 20.6875 12.7776 20.6875 9.5345C20.6764 7.37027 19.809 5.29844 18.2747 3.77199C16.7404 2.24553 14.6642 1.38864 12.5 1.38867ZM16.3819 16.6664L16.1319 17.0345C14.9375 18.8262 13.3541 20.8331 12.5 21.8262C11.6805 20.8331 10.0625 18.8262 8.86801 17.0345L8.62495 16.6664C7.39579 14.8331 5.70829 12.3262 5.70829 9.50673C5.70829 8.61483 5.88396 7.73167 6.22527 6.90767C6.56658 6.08367 7.06685 5.33496 7.69752 4.70429C8.32818 4.07363 9.07689 3.57336 9.90089 3.23205C10.7249 2.89073 11.6081 2.71506 12.5 2.71506C13.3918 2.71506 14.275 2.89073 15.099 3.23205C15.923 3.57336 16.6717 4.07363 17.3024 4.70429C17.9331 5.33496 18.4333 6.08367 18.7746 6.90767C19.1159 7.73167 19.2916 8.61483 19.2916 9.50673C19.2916 12.3539 17.6111 14.8609 16.3819 16.6664Z" fill="#373737"/>
</svg>
