<svg width="25" height="25" viewBox="0 0 25 25" fill="none" xmlns="http://www.w3.org/2000/svg">
<path fill-rule="evenodd" clip-rule="evenodd" d="M3.60417 4.75C3.17872 4.75 2.77069 4.91901 2.46985 5.21985C2.16901 5.52069 2 5.92872 2 6.35417L2 19.1875C2 20.073 2.71867 20.7917 3.60417 20.7917H22.3958C22.8213 20.7917 23.2293 20.6227 23.5301 20.3218C23.831 20.021 24 19.613 24 19.1875V6.35417C24 5.92872 23.831 5.52069 23.5301 5.21985C23.2293 4.91901 22.8213 4.75 22.3958 4.75H3.60417ZM3.375 6.35417C3.375 6.29339 3.39914 6.2351 3.44212 6.19212C3.4851 6.14914 3.54339 6.125 3.60417 6.125H22.3958C22.4566 6.125 22.5149 6.14914 22.5579 6.19212C22.6009 6.2351 22.625 6.29339 22.625 6.35417V7.13517L13.1283 13.5518C13.0904 13.5774 13.0457 13.5911 13 13.5911C12.9543 13.5911 12.9096 13.5774 12.8717 13.5518L3.375 7.13517V6.35417ZM3.375 8.79433V19.1875C3.375 19.314 3.47767 19.4167 3.60417 19.4167H22.3958C22.4566 19.4167 22.5149 19.3925 22.5579 19.3495C22.6009 19.3066 22.625 19.2483 22.625 19.1875V8.79433L13.8983 14.6912C13.3557 15.0579 12.6443 15.0579 12.1017 14.6912L3.375 8.79433Z" fill="#373737"/>
</svg>
