<svg width="53" height="53" viewBox="0 0 53 53" fill="none" xmlns="http://www.w3.org/2000/svg">
<path d="M15.8733 0.538574C7.41812 0.538574 0.538757 7.41794 0.538757 15.8732V37.1057C0.538757 45.5609 7.41812 52.4402 15.8733 52.4402H37.1058C45.5611 52.4402 52.4404 45.5609 52.4404 37.1057V15.8732C52.4404 7.41794 45.5611 0.538574 37.1058 0.538574H15.8733ZM15.8733 2.89774H37.1058C44.2847 2.89774 50.0813 8.69429 50.0813 15.8732V37.1057C50.0813 44.2845 44.2847 50.0811 37.1058 50.0811H15.8733C8.69447 50.0811 2.89792 44.2845 2.89792 37.1057V15.8732C2.89792 8.69429 8.69447 2.89774 15.8733 2.89774ZM40.6446 9.97524C39.3406 9.97524 38.2854 11.0304 38.2854 12.3344C38.2854 13.6384 39.3406 14.6936 40.6446 14.6936C41.9486 14.6936 43.0038 13.6384 43.0038 12.3344C43.0038 11.0304 41.9486 9.97524 40.6446 9.97524ZM26.4896 13.514C19.3384 13.514 13.5142 19.3382 13.5142 26.4894C13.5142 33.6406 19.3384 39.4648 26.4896 39.4648C33.6408 39.4648 39.465 33.6406 39.465 26.4894C39.465 19.3382 33.6408 13.514 26.4896 13.514ZM26.4896 15.8732C32.3668 15.8732 37.1058 20.6122 37.1058 26.4894C37.1058 32.3666 32.3668 37.1057 26.4896 37.1057C20.6124 37.1057 15.8733 32.3666 15.8733 26.4894C15.8733 20.6122 20.6124 15.8732 26.4896 15.8732Z" fill="#313131"/>
</svg>
