<svg width="51" height="51" viewBox="0 0 51 51" fill="none" xmlns="http://www.w3.org/2000/svg">
<path d="M6.61627 0.718262C3.37242 0.718262 0.718353 3.37232 0.718353 6.61618V44.3629C0.718353 47.6067 3.37242 50.2608 6.61627 50.2608H44.3629C47.6068 50.2608 50.2609 47.6067 50.2609 44.3629V6.61618C50.2609 3.37232 47.6068 0.718262 44.3629 0.718262H6.61627ZM6.61627 3.07743H44.3629C46.3304 3.07743 47.9017 4.64867 47.9017 6.61618V44.3629C47.9017 46.3304 46.3304 47.9016 44.3629 47.9016H6.61627C4.64876 47.9016 3.07752 46.3304 3.07752 44.3629V6.61618C3.07752 4.64867 4.64876 3.07743 6.61627 3.07743ZM23.5981 14.864C22.3517 14.8617 21.239 14.9309 20.2437 15.4193L20.2414 15.4216C19.7553 15.6612 19.4143 15.963 19.1424 16.3247C19.0065 16.5044 18.866 16.668 18.7922 17.0781C18.7554 17.2831 18.7346 17.6172 18.9489 17.9766C19.1632 18.336 19.5963 18.541 19.8728 18.5779C20.064 18.6032 20.4994 18.7875 20.5386 18.8428C20.5386 18.8451 20.5409 18.8451 20.5409 18.8474C20.5409 18.8474 20.7091 19.2852 20.7574 19.6768C20.8058 20.0685 20.8035 20.3841 20.8035 20.3841C20.8035 20.4164 20.8035 20.4463 20.8058 20.4786C20.8058 20.4786 20.8749 21.5015 20.8289 22.559C20.8104 22.9806 20.7574 23.3561 20.6999 23.6902C20.2805 23.2271 19.6608 22.3862 18.7669 20.838C17.7762 19.1193 16.986 17.578 16.986 17.578C16.9445 17.4444 16.7971 17.0251 16.2257 16.6058C15.5991 16.145 14.9955 16.0759 14.9955 16.0759C14.9194 16.0598 14.8434 16.0528 14.7651 16.0528L10.1159 16.0552C10.1159 16.0552 9.83709 16.039 9.50302 16.0851C9.16896 16.1312 8.66672 16.168 8.1806 16.744L8.1783 16.7463C7.74517 17.2647 7.77051 17.8384 7.8235 18.1609C7.87649 18.4834 7.99399 18.7299 7.99399 18.7299C7.99629 18.7346 7.99859 18.7392 8.0009 18.7438C8.0009 18.7438 11.8046 26.7382 16.1013 31.4473C19.2231 34.8663 22.4255 34.9239 25.068 34.9239H27.0401C27.5447 34.9239 27.9985 34.9031 28.5031 34.6106C29.0076 34.318 29.3463 33.6015 29.3463 33.1061C29.3463 32.5854 29.4246 32.1777 29.5191 31.968C29.5859 31.8206 29.6389 31.7676 29.7218 31.7238C29.7402 31.7353 29.7287 31.7284 29.7771 31.763C29.9729 31.9012 30.2978 32.2168 30.6503 32.6085C31.3553 33.3941 32.1547 34.47 33.2306 35.2096C34.0001 35.7395 34.7281 35.9744 35.2811 36.0597C35.6266 36.1127 35.8962 36.1035 36.0874 36.0873L40.4924 36.1058C40.5178 36.1058 40.5454 36.1058 40.5708 36.1035C40.5708 36.1035 41.3287 36.1127 42.119 35.6404C42.5129 35.4054 42.9783 34.9561 43.1304 34.3041C43.2824 33.6521 43.0912 32.9748 42.7203 32.3574V32.3551C42.7848 32.461 42.6627 32.2422 42.536 32.0371C42.4093 31.8321 42.2272 31.5556 41.9646 31.2123C41.4393 30.5258 40.5984 29.5651 39.2391 28.3002H39.2368C38.5457 27.6575 38.0803 27.2036 37.889 26.9502C37.6978 26.6967 37.76 26.8304 37.7739 26.7659C37.7992 26.6368 38.6286 25.4411 40.315 23.1903C41.3403 21.8194 42.0591 20.7896 42.5337 19.9349C43.0083 19.0801 43.3492 18.3383 43.1119 17.4306C43.1119 17.4283 43.1096 17.4283 43.1096 17.426C43.0037 17.0274 42.7157 16.6611 42.4185 16.4606C42.1213 16.2602 41.8402 16.1819 41.5891 16.1335C41.0868 16.0367 40.6468 16.0528 40.239 16.0528C39.3843 16.0528 35.5921 16.0828 35.2788 16.0828C34.9101 16.0828 34.2996 16.251 34.0301 16.4123C33.3527 16.82 33.1569 17.3568 33.1569 17.3568C33.1454 17.3799 33.1339 17.4029 33.1223 17.426C33.1223 17.426 32.339 19.1608 31.3322 20.8749C30.3116 22.6143 29.5582 23.4414 29.1021 23.8261C29.0906 23.757 29.0906 23.8123 29.0836 23.7178C29.0422 23.2317 29.0883 22.5613 29.0883 21.907C29.0883 20.1445 29.238 18.9097 29.1574 17.8199C29.1182 17.2739 29.0168 16.7118 28.6574 16.1957C28.298 15.6796 27.7013 15.3433 27.1115 15.2004C26.7567 15.1152 26.3536 14.894 24.8929 14.8779H24.8906C24.4436 14.8733 24.0128 14.864 23.5981 14.864ZM24.8676 17.237C26.16 17.2509 25.8375 17.3223 26.5563 17.4951C26.7798 17.5481 26.7245 17.5481 26.7199 17.5412C26.7153 17.5342 26.7798 17.6563 26.8051 17.995C26.8558 18.6747 26.7291 20.0247 26.7291 21.907C26.7291 22.4208 26.6669 23.1534 26.7314 23.916C26.7959 24.6786 26.9848 25.66 27.8972 26.2498C28.3303 26.5309 28.8325 26.547 29.261 26.441C29.6896 26.335 30.0789 26.1116 30.489 25.7844C31.3069 25.1301 32.2192 24.0243 33.3665 22.0706C34.4378 20.2482 35.2189 18.5111 35.2442 18.4535C35.2488 18.4489 35.2534 18.4466 35.2603 18.442C35.2742 18.442 35.2603 18.442 35.2788 18.442C35.7188 18.442 39.4419 18.412 40.239 18.412C40.4256 18.412 40.4924 18.4235 40.6399 18.4281C40.6007 18.5618 40.6445 18.4765 40.4694 18.7922C40.1031 19.4534 39.4257 20.4371 38.4259 21.7757C36.7809 23.9713 35.7626 24.8306 35.4631 26.289C35.3133 27.017 35.5944 27.8256 36.0068 28.3717C36.4192 28.9177 36.9399 29.3854 37.631 30.0281C38.9097 31.2193 39.6607 32.0855 40.0916 32.6477C40.3058 32.9287 40.4417 33.1315 40.527 33.2697C40.6122 33.4079 40.5915 33.3918 40.6998 33.5738C40.7712 33.6936 40.7459 33.6199 40.7574 33.6567C40.6168 33.6959 40.444 33.7443 40.4348 33.7466L36.0966 33.7282C36.0183 33.7282 35.94 33.7351 35.8639 33.7512C35.8639 33.7512 35.8755 33.765 35.6428 33.7282C35.4101 33.6913 35.0415 33.5922 34.5669 33.2651C33.9932 32.8711 33.1915 31.9081 32.4058 31.0326C32.0119 30.5949 31.6202 30.1756 31.1341 29.8323C30.648 29.489 29.9176 29.1688 29.132 29.4153C28.3165 29.671 27.6806 30.3092 27.3696 30.9935C27.1392 31.5026 27.1207 32.0348 27.0839 32.5647C27.0447 32.567 27.0908 32.5647 27.0401 32.5647H25.068C22.3886 32.5647 20.4856 32.749 17.843 29.8554C14.2882 25.9618 11.0305 19.481 10.5006 18.4143L14.5923 18.412C14.6637 18.4397 14.8181 18.4973 14.8273 18.5042C14.8296 18.5065 14.8296 18.5065 14.8319 18.5088C14.6821 18.4005 14.8388 18.5526 14.8388 18.5526C14.8526 18.5871 14.8687 18.6217 14.8872 18.6562C14.8872 18.6562 15.6981 20.2413 16.7234 22.0176C17.7302 23.7593 18.4628 24.849 19.1701 25.5678C19.5249 25.9273 19.882 26.2152 20.3589 26.3788C20.8358 26.5424 21.4532 26.4825 21.8679 26.2544C22.7157 25.7913 22.8286 25.1071 22.9669 24.5081C23.1051 23.9091 23.1604 23.2709 23.1857 22.6604C23.2364 21.4762 23.165 20.4486 23.1604 20.3864C23.1604 20.3634 23.165 19.9372 23.0982 19.3889C23.0291 18.829 22.9507 18.1425 22.4439 17.4513L22.4416 17.449C22.437 17.4444 22.4347 17.4444 22.4301 17.4398C23.1005 17.343 23.6742 17.2255 24.8676 17.237ZM35.2742 18.3936L35.258 18.4304C35.2557 18.4327 35.2557 18.4281 35.2534 18.4304C35.258 18.4212 35.2742 18.3936 35.2742 18.3936Z" fill="#313131"/>
</svg>
