<svg width="34" height="34" viewBox="0 0 34 34" fill="none" xmlns="http://www.w3.org/2000/svg">
<path id="vk" d="M4.19995 0.199829C1.99995 0.199829 0.199951 1.99983 0.199951 4.19983V29.7998C0.199951 31.9998 1.99995 33.7998 4.19995 33.7998H29.7999C31.9999 33.7998 33.7999 31.9998 33.7999 29.7998V4.19983C33.7999 1.99983 31.9999 0.199829 29.7999 0.199829H4.19995ZM4.19995 1.79983H29.7999C31.1343 1.79983 32.1999 2.86545 32.1999 4.19983V29.7998C32.1999 31.1342 31.1343 32.1998 29.7999 32.1998H4.19995C2.86558 32.1998 1.79995 31.1342 1.79995 29.7998V4.19983C1.79995 2.86545 2.86558 1.79983 4.19995 1.79983ZM15.7171 9.79358C14.8718 9.79202 14.1171 9.83889 13.4421 10.1701L13.4406 10.1717C13.1109 10.3342 12.8796 10.5389 12.6953 10.7842C12.6031 10.9061 12.5078 11.017 12.4578 11.2951C12.4328 11.4342 12.4187 11.6608 12.564 11.9045C12.7093 12.1483 13.0031 12.2873 13.1906 12.3123C13.3203 12.3295 13.6156 12.4545 13.6421 12.492C13.6421 12.4936 13.6437 12.4936 13.6437 12.4951C13.6437 12.4951 13.7578 12.792 13.7906 13.0576C13.8234 13.3233 13.8218 13.5373 13.8218 13.5373C13.8218 13.5592 13.8218 13.5795 13.8234 13.6014C13.8234 13.6014 13.8703 14.2951 13.839 15.0123C13.8265 15.2983 13.7906 15.553 13.7515 15.7795C13.4671 15.4655 13.0468 14.8951 12.4406 13.8451C11.7687 12.6795 11.2328 11.6342 11.2328 11.6342C11.2046 11.5436 11.1046 11.2592 10.7171 10.9748C10.2921 10.6623 9.88276 10.6155 9.88276 10.6155C9.8312 10.6045 9.77964 10.5998 9.72651 10.5998L6.57339 10.6014C6.57339 10.6014 6.38433 10.5905 6.15776 10.6217C5.9312 10.653 5.59058 10.678 5.26089 11.0686L5.25933 11.0701C4.96558 11.4217 4.98276 11.8108 5.0187 12.0295C5.05464 12.2483 5.13433 12.4155 5.13433 12.4155C5.13589 12.4186 5.13745 12.4217 5.13901 12.4248C5.13901 12.4248 7.7187 17.8467 10.6328 21.0405C12.75 23.3592 14.9218 23.3983 16.714 23.3983H18.0515C18.3937 23.3983 18.7015 23.3842 19.0437 23.1858C19.3859 22.9873 19.6156 22.5014 19.6156 22.1655C19.6156 21.8123 19.6687 21.5358 19.7328 21.3936C19.7781 21.2936 19.814 21.2576 19.8703 21.228C19.8828 21.2358 19.875 21.2311 19.9078 21.2545C20.0406 21.3483 20.2609 21.5623 20.5 21.828C20.9781 22.3608 21.5203 23.0905 22.25 23.592C22.7718 23.9514 23.2656 24.1108 23.6406 24.1686C23.875 24.2045 24.0578 24.1983 24.1875 24.1873L27.1749 24.1998C27.1921 24.1998 27.2109 24.1998 27.2281 24.1983C27.2281 24.1983 27.7421 24.2045 28.2781 23.8842C28.5453 23.7248 28.8609 23.4201 28.964 22.978C29.0671 22.5358 28.9374 22.0764 28.6859 21.6576V21.6561C28.7296 21.728 28.6468 21.5795 28.5609 21.4405C28.4749 21.3014 28.3515 21.1139 28.1734 20.8811C27.8171 20.4155 27.2468 19.7639 26.3249 18.9061H26.3234C25.8546 18.4701 25.539 18.1623 25.4093 17.9905C25.2796 17.8186 25.3218 17.9092 25.3312 17.8655C25.3484 17.778 25.9109 16.967 27.0546 15.4405C27.7499 14.5108 28.2374 13.8123 28.5593 13.2326C28.8812 12.653 29.1124 12.1498 28.9515 11.5342C28.9515 11.5326 28.9499 11.5326 28.9499 11.5311C28.8781 11.2608 28.6828 11.0123 28.4812 10.8764C28.2796 10.7405 28.089 10.6873 27.9187 10.6545C27.5781 10.5889 27.2796 10.5998 27.0031 10.5998C26.4234 10.5998 23.8515 10.6201 23.639 10.6201C23.389 10.6201 22.9749 10.7342 22.7921 10.8436C22.3328 11.1201 22.1999 11.4842 22.1999 11.4842C22.1921 11.4998 22.1843 11.5155 22.1765 11.5311C22.1765 11.5311 21.6453 12.7076 20.9625 13.8701C20.2703 15.0498 19.7593 15.6108 19.4499 15.8717C19.4421 15.8248 19.4421 15.8623 19.4375 15.7983C19.4093 15.4686 19.4406 15.0139 19.4406 14.5701C19.4406 13.3748 19.5421 12.5373 19.4874 11.7983C19.4609 11.428 19.3921 11.0467 19.1484 10.6967C18.9046 10.3467 18.5 10.1186 18.1 10.0217C17.8593 9.96389 17.5859 9.81389 16.5953 9.80295H16.5937C16.2906 9.79983 15.9984 9.79358 15.7171 9.79358ZM16.5781 11.403C17.4546 11.4123 17.2359 11.4608 17.7234 11.578C17.875 11.6139 17.8375 11.6139 17.8343 11.6092C17.8312 11.6045 17.875 11.6873 17.8921 11.917C17.9265 12.378 17.8406 13.2936 17.8406 14.5701C17.8406 14.9186 17.7984 15.4155 17.8421 15.9326C17.8859 16.4498 18.014 17.1155 18.6328 17.5155C18.9265 17.7061 19.2671 17.717 19.5578 17.6451C19.8484 17.5733 20.1124 17.4217 20.3906 17.1998C20.9453 16.7561 21.564 16.0061 22.3421 14.6811C23.0687 13.4451 23.5984 12.267 23.6156 12.228C23.6187 12.2248 23.6218 12.2233 23.6265 12.2201C23.6359 12.2201 23.6265 12.2201 23.639 12.2201C23.9375 12.2201 26.4625 12.1998 27.0031 12.1998C27.1296 12.1998 27.1749 12.2076 27.275 12.2108C27.2484 12.3014 27.2781 12.2436 27.1593 12.4576C26.9109 12.9061 26.4515 13.5733 25.7734 14.4811C24.6578 15.9701 23.9671 16.553 23.764 17.542C23.6625 18.0358 23.8531 18.5842 24.1328 18.9545C24.4124 19.3248 24.7656 19.642 25.2343 20.078C26.1015 20.8858 26.6109 21.4733 26.9031 21.8545C27.0484 22.0451 27.1406 22.1826 27.1984 22.2764C27.2562 22.3701 27.2421 22.3592 27.3156 22.4826C27.364 22.5639 27.3468 22.5139 27.3546 22.5389C27.2593 22.5655 27.1421 22.5983 27.1359 22.5998L24.1937 22.5873C24.1406 22.5873 24.0875 22.592 24.0359 22.603C24.0359 22.603 24.0437 22.6123 23.8859 22.5873C23.7281 22.5623 23.4781 22.4951 23.1562 22.2733C22.7671 22.0061 22.2234 21.353 21.6906 20.7592C21.4234 20.4623 21.1578 20.178 20.8281 19.9451C20.4984 19.7123 20.0031 19.4951 19.4703 19.6623C18.9171 19.8358 18.4859 20.2686 18.275 20.7326C18.1187 21.078 18.1062 21.4389 18.0812 21.7983C18.0546 21.7998 18.0859 21.7983 18.0515 21.7983H16.714C14.8968 21.7983 13.6062 21.9233 11.814 19.9608C9.40308 17.3201 7.1937 12.9248 6.83433 12.2014L9.60933 12.1998C9.65776 12.2186 9.76245 12.2576 9.7687 12.2623C9.77026 12.2639 9.77026 12.2639 9.77183 12.2655C9.67026 12.192 9.77651 12.2951 9.77651 12.2951C9.78589 12.3186 9.79683 12.342 9.80933 12.3655C9.80933 12.3655 10.3593 13.4405 11.0546 14.6451C11.7375 15.8264 12.2343 16.5655 12.714 17.053C12.9546 17.2967 13.1968 17.492 13.5203 17.603C13.8437 17.7139 14.2625 17.6733 14.5437 17.5186C15.1187 17.2045 15.1953 16.7405 15.289 16.3342C15.3828 15.928 15.4203 15.4951 15.4375 15.0811C15.4718 14.278 15.4234 13.5811 15.4203 13.5389C15.4203 13.5233 15.4234 13.2342 15.3781 12.8623C15.3312 12.4826 15.2781 12.017 14.9343 11.5483L14.9328 11.5467C14.9296 11.5436 14.9281 11.5436 14.925 11.5405C15.3796 11.4748 15.7687 11.3951 16.5781 11.403ZM23.6359 12.1873L23.625 12.2123C23.6234 12.2139 23.6234 12.2108 23.6218 12.2123C23.625 12.2061 23.6359 12.1873 23.6359 12.1873Z" fill="#313131"/>
</svg>
