<svg width="36" height="36" viewBox="0 0 36 36" fill="none" xmlns="http://www.w3.org/2000/svg">
<path d="M10.7999 0.399902C5.06553 0.399902 0.399902 5.06553 0.399902 10.7999V25.1999C0.399902 30.9343 5.06553 35.5999 10.7999 35.5999H25.1999C30.9343 35.5999 35.5999 30.9343 35.5999 25.1999V10.7999C35.5999 5.06553 30.9343 0.399902 25.1999 0.399902H10.7999ZM10.7999 1.9999H25.1999C30.0687 1.9999 33.9999 5.93115 33.9999 10.7999V25.1999C33.9999 30.0687 30.0687 33.9999 25.1999 33.9999H10.7999C5.93115 33.9999 1.9999 30.0687 1.9999 25.1999V10.7999C1.9999 5.93115 5.93115 1.9999 10.7999 1.9999ZM27.5999 6.7999C26.7155 6.7999 25.9999 7.51553 25.9999 8.3999C25.9999 9.28428 26.7155 9.9999 27.5999 9.9999C28.4843 9.9999 29.1999 9.28428 29.1999 8.3999C29.1999 7.51553 28.4843 6.7999 27.5999 6.7999ZM17.9999 9.1999C13.1499 9.1999 9.1999 13.1499 9.1999 17.9999C9.1999 22.8499 13.1499 26.7999 17.9999 26.7999C22.8499 26.7999 26.7999 22.8499 26.7999 17.9999C26.7999 13.1499 22.8499 9.1999 17.9999 9.1999ZM17.9999 10.7999C21.9858 10.7999 25.1999 14.014 25.1999 17.9999C25.1999 21.9858 21.9858 25.1999 17.9999 25.1999C14.014 25.1999 10.7999 21.9858 10.7999 17.9999C10.7999 14.014 14.014 10.7999 17.9999 10.7999Z" fill="#313131"/>
</svg>
