<svg width="91" height="84" viewBox="0 0 91 84" fill="none" xmlns="http://www.w3.org/2000/svg">
<path d="M45.5 84C28.0982 84 12.293 72 8.14211 54.4C3.67193 54.08 0 50.24 0 45.6C0 40.96 3.67193 37.12 8.14211 36.8C11.4947 22.4 22.8298 11.2 37.3579 8.00002C57.793 3.52002 78.0684 16.48 82.8579 36.8C87.4877 37.12 91 40.96 91 45.6C91 50.24 87.3281 54.08 82.8579 54.4C79.5053 68.8 68.1702 80 53.6421 83.2C50.9281 83.68 48.214 84 45.5 84ZM8.7807 38.4C4.78947 38.4 1.59649 41.6 1.59649 45.6C1.59649 49.6 4.78947 52.8 8.7807 52.8C9.1 52.8 9.57895 53.12 9.57895 53.44C13.8895 73.28 33.5263 85.92 53.3228 81.6C67.3719 78.56 78.3877 67.52 81.4211 53.44C81.4211 53.12 81.9 52.8 82.2193 52.8C86.2105 52.8 89.4035 49.6 89.4035 45.6C89.4035 41.6 86.2105 38.4 82.2193 38.4C81.9 38.4 81.4211 38.08 81.4211 37.76C77.1105 17.92 57.4737 5.28002 37.6772 9.60002C23.6281 12.64 12.6123 23.68 9.57895 37.76C9.57895 38.08 9.25965 38.4 8.7807 38.4Z" fill="#373737"/>
<path d="M31.1316 57.5999C28.0982 57.5999 25.5439 55.0399 25.5439 51.9999C25.5439 48.9599 28.0982 46.3999 31.1316 46.3999C34.1649 46.3999 36.7193 48.9599 36.7193 51.9999C36.7193 55.0399 34.1649 57.5999 31.1316 57.5999ZM31.1316 47.9999C28.8965 47.9999 27.1403 49.7599 27.1403 51.9999C27.1403 54.2399 28.8965 55.9999 31.1316 55.9999C33.3667 55.9999 35.1228 54.2399 35.1228 51.9999C35.1228 49.7599 33.3667 47.9999 31.1316 47.9999Z" fill="#373737"/>
<path d="M59.8684 57.5999C56.8351 57.5999 54.2807 55.0399 54.2807 51.9999C54.2807 48.9599 56.8351 46.3999 59.8684 46.3999C62.9018 46.3999 65.4561 48.9599 65.4561 51.9999C65.4561 55.0399 62.9018 57.5999 59.8684 57.5999ZM59.8684 47.9999C57.6333 47.9999 55.8772 49.7599 55.8772 51.9999C55.8772 54.2399 57.6333 55.9999 59.8684 55.9999C62.1035 55.9999 63.8597 54.2399 63.8597 51.9999C63.8597 49.7599 62.1035 47.9999 59.8684 47.9999Z" fill="#373737"/>
<path d="M45.5 77.5999C37.9965 77.5999 31.9298 71.5199 31.9298 64C31.9298 63.52 32.2491 63.2 32.7281 63.2H58.2719C58.7509 63.2 59.0702 63.52 59.0702 64C59.0702 71.5199 53.0035 77.5999 45.5 77.5999ZM33.5263 64.8C34.0052 71.04 39.114 75.9999 45.5 75.9999C51.886 75.9999 56.9947 71.04 57.4737 64.8H33.5263Z" fill="#373737"/>
<path d="M45.5 16C45.0211 16 44.7018 15.68 44.7018 15.2V8.16C44.7018 3.68 48.3737 0 52.8439 0C55.5579 0 58.1123 1.28 59.5491 3.68C60.8263 5.6 63.5404 6.08 65.4561 4.8C65.9351 4.48 66.2544 4.16 66.5737 3.68L68.8088 0.48C69.1281 0.16 69.607 0 69.9263 0.32C70.2456 0.64 70.4053 1.12 70.086 1.44L67.8509 4.64C67.3719 5.28 66.893 5.76 66.2544 6.24C63.5404 8 59.8684 7.36 58.1123 4.64C56.8351 2.88 54.9193 1.76 52.6842 1.76C49.1719 1.6 46.2982 4.48 46.2982 8.16V15.2C46.2982 15.68 45.9789 16 45.5 16Z" fill="#373737"/>
<path d="M43.9035 69.6H39.114C38.6351 69.6 38.3158 69.28 38.3158 68.8V64C38.3158 63.52 38.6351 63.2 39.114 63.2H43.9035C44.3825 63.2 44.7018 63.52 44.7018 64V68.8C44.7018 69.28 44.3825 69.6 43.9035 69.6ZM39.9123 68H43.1053V64.8H39.9123V68Z" fill="#373737"/>
</svg>
