<svg width="82" height="82" viewBox="0 0 82 82" fill="none" xmlns="http://www.w3.org/2000/svg">
<g clip-path="url(#clip0)">
<path d="M60.9965 81.9999C57.8316 81.9999 55.0983 79.6982 54.379 76.6771L50.0632 63.5859C48.7685 59.5578 45.0281 56.9683 40.8562 56.9683C36.6842 56.9683 32.9439 59.7017 31.6492 63.5859L27.3334 76.821C26.7579 79.842 24.0246 82.1438 20.8597 82.1438C17.5509 82.1438 14.6737 79.6982 14.2421 76.3894L11.6527 57.5438C10.7895 51.5017 8.63161 45.8911 5.32284 41.5753C1.15091 36.1087 -0.575409 29.2034 0.287749 22.2982C1.87021 10.5017 11.2211 1.4385 23.0176 0.143768C27.3334 -0.287811 31.6492 0.287628 35.6772 1.87008C39.1299 3.30868 43.0141 3.30868 46.4667 1.87008C50.6386 0.143768 54.9544 -0.431671 59.5579 0.143768C71.3544 1.58236 80.2737 10.5017 81.8562 22.2982C82.7193 28.9157 81.1369 35.5332 77.2527 40.856C73.5123 46.1789 71.2106 51.6455 70.3474 57.1122L67.6141 76.2455C67.1825 79.5543 64.3053 81.9999 60.9965 81.9999ZM41 55.3859C45.8913 55.3859 50.0632 58.4069 51.5018 63.0104L55.8176 76.2455C56.393 78.835 58.5509 80.5613 60.9965 80.5613C63.586 80.5613 65.8878 78.6911 66.1755 76.1017L68.9088 56.9683C69.772 51.2139 72.0737 45.6034 75.9579 40.1368C79.5544 35.1017 81.1369 28.9157 80.2737 22.5859C78.8351 11.5087 70.3474 3.02096 59.2702 1.58236C54.9544 1.00693 50.9263 1.58236 46.8983 3.16482C43.0141 4.74728 38.8421 4.74728 34.9579 3.16482C31.2176 1.58236 27.1895 1.00693 23.0176 1.58236C11.9404 2.8771 3.16494 11.3648 1.72635 22.442C0.863188 28.9157 2.5895 35.3894 6.47371 40.5683C9.92635 45.1718 12.2281 50.9262 13.2351 57.2561L15.9685 75.9578C16.4 78.5473 18.5579 80.4175 21.1474 80.4175C23.593 80.4175 25.7509 78.6911 26.3263 76.2455L30.6421 63.0104C31.9369 58.4069 36.1088 55.3859 41 55.3859Z" fill="#373737"/>
<path d="M41 40.2804C40.5684 40.2804 40.2807 39.9926 40.2807 39.5611V19.4207C40.2807 18.9891 40.5684 18.7014 41 18.7014C41.4316 18.7014 41.7193 18.9891 41.7193 19.4207V39.5611C41.7193 39.9926 41.4316 40.2804 41 40.2804Z" fill="#373737"/>
<path d="M49.7755 35.2451C49.6316 35.2451 49.4877 35.2451 49.4877 35.1013L32.0807 25.0311C31.793 24.8872 31.6491 24.4557 31.793 24.0241C31.9369 23.7364 32.3684 23.5925 32.8 23.7364L50.207 33.8065C50.4948 33.9504 50.6386 34.382 50.4948 34.8136C50.207 35.1013 49.9193 35.2451 49.7755 35.2451Z" fill="#373737"/>
<path d="M32.2245 35.2454C31.9368 35.2454 31.7929 35.1015 31.6491 34.9577C31.5052 34.6699 31.5052 34.2384 31.9368 33.9506L49.3438 23.8805C49.6315 23.7366 50.0631 23.7366 50.3508 24.1682C50.4947 24.4559 50.4947 24.8875 50.0631 25.1752L32.6561 35.2454C32.5122 35.2454 32.3684 35.2454 32.2245 35.2454Z" fill="#373737"/>
<path d="M41 20.1402C40.8561 20.1402 40.5684 19.9963 40.4245 19.8524L36.6842 15.5366C36.3964 15.2489 36.3964 14.8173 36.828 14.5296C37.1157 14.2419 37.5473 14.2419 37.835 14.6735L41 18.4138L44.1649 14.6735C44.4526 14.3858 44.8842 14.3858 45.1719 14.5296C45.4596 14.8173 45.4596 15.2489 45.3157 15.5366L41.5754 19.8524C41.4315 19.9963 41.1438 20.1402 41 20.1402Z" fill="#373737"/>
<path d="M44.7404 44.5963C44.5965 44.5963 44.3088 44.4524 44.1649 44.3086L41 40.5682L37.8351 44.3086C37.5474 44.5963 37.1158 44.5963 36.8281 44.4524C36.5404 44.1647 36.5404 43.7331 36.6842 43.4454L40.4246 39.1296C40.7123 38.8419 41.2877 38.8419 41.5754 39.1296L45.3158 43.4454C45.6035 43.7331 45.6035 44.1647 45.1719 44.4524C45.0281 44.5963 44.8842 44.5963 44.7404 44.5963Z" fill="#373737"/>
<path d="M26.6141 26.326C26.3264 26.326 26.0386 26.0383 25.8948 25.7506C25.7509 25.319 26.0386 25.0313 26.4702 24.8874L31.2176 24.0243L29.6351 19.4208C29.4913 18.9892 29.6351 18.7015 30.0667 18.5576C30.4983 18.4137 30.786 18.5576 30.9299 18.9892L32.8 24.312C32.8 24.4559 32.8 24.7436 32.8 24.8874C32.6562 25.0313 32.5123 25.1752 32.3685 25.1752L26.6141 26.326C26.7579 26.1822 26.7579 26.326 26.6141 26.326Z" fill="#373737"/>
<path d="M51.6457 40.7121C51.358 40.7121 51.0703 40.5682 50.9264 40.2805L49.0562 34.8138C49.0562 34.67 49.0562 34.3823 49.0562 34.2384C49.2001 34.0945 49.3439 33.9507 49.4878 33.9507L55.0983 32.7998C55.5299 32.7998 55.8176 32.9437 55.9615 33.3752C56.1053 33.8068 55.8176 34.0945 55.386 34.2384L50.6387 35.1016L52.2211 39.7051C52.365 40.1366 52.2211 40.4244 51.7895 40.5682L51.6457 40.7121Z" fill="#373737"/>
<path d="M30.3544 40.712C30.2105 40.712 30.2105 40.712 30.0666 40.712C29.6351 40.5682 29.4912 40.1366 29.6351 39.8489L31.2175 35.2454L26.4702 34.3822C26.0386 34.2383 25.8947 33.9506 25.8947 33.519C26.0386 33.0875 26.3263 32.9436 26.7579 32.9436L32.3684 34.0945C32.5123 34.0945 32.8 34.2383 32.8 34.3822C32.9438 34.5261 32.9438 34.8138 32.8 34.9576L30.9298 40.4243C30.9298 40.4243 30.6421 40.712 30.3544 40.712Z" fill="#373737"/>
<path d="M55.386 26.326C55.2421 26.326 55.2421 26.1822 55.386 26.326L49.6316 25.1752C49.4877 25.1752 49.2 25.0313 49.2 24.8874C49.0561 24.7436 49.0561 24.4559 49.2 24.312L51.0702 18.9892C51.214 18.5576 51.6456 18.4137 51.9333 18.5576C52.3649 18.7015 52.5088 19.133 52.3649 19.4208L50.7825 24.0243L55.5298 24.8874C55.9614 25.0313 56.1053 25.319 56.1053 25.7506C55.9614 26.0383 55.6737 26.326 55.386 26.326Z" fill="#373737"/>
</g>
<defs>
<clipPath id="clip0">
<rect width="82" height="82" fill="white"/>
</clipPath>
</defs>
</svg>
