<svg width="101" height="101" viewBox="0 0 101 101" fill="none" xmlns="http://www.w3.org/2000/svg">
<path d="M100.114 80.6229C99.5825 80.6229 99.2281 80.2685 99.2281 79.7369V78.851C99.2281 71.9404 93.5579 66.4475 86.8246 66.4475H85.9386C85.407 66.4475 85.0526 66.0931 85.0526 65.5615C85.0526 65.0299 85.407 64.6755 85.9386 64.6755H86.8246C94.6211 64.6755 101 71.0545 101 78.851V79.7369C101 80.2685 100.646 80.6229 100.114 80.6229Z" fill="#373737"/>
<path d="M16.8333 70.877C13.6439 70.877 10.2772 69.8139 7.9737 67.5104L7.44212 66.9788C7.08773 66.6244 7.08773 66.0928 7.44212 65.7384C7.79651 65.3841 8.32809 65.3841 8.68247 65.7384L9.21405 66.27C13.4667 70.1683 20.3772 70.1683 24.807 66.27L25.3386 65.7384C25.693 65.3841 26.2246 65.3841 26.579 65.7384C26.9333 66.0928 26.9333 66.6244 26.579 66.9788L26.0474 67.5104C23.3895 69.8139 20.0228 70.877 16.8333 70.877Z" fill="#373737"/>
<path d="M71.0544 101C67.8649 101 65.0299 99.0508 63.9667 96.2157L59.8913 86.1157C59.1825 84.521 57.5877 83.4578 55.8158 83.4578C54.0439 83.4578 52.4492 84.521 51.7404 86.1157L47.6649 96.2157C46.4246 99.228 43.5895 101 40.5772 101C36.679 101 33.4895 98.1649 32.9579 94.2666L32.4263 90.7228C31.3632 82.0403 28.7053 73.535 24.807 65.5614C22.5035 60.7771 21.2632 55.4614 21.2632 50.5C21.2632 37.2105 30.1228 28.3508 43.4123 28.3508C45.893 28.3508 48.1965 28.8824 50.5 29.7684C53.8667 31.1859 57.5877 31.1859 60.9544 29.7684C63.2579 28.8824 65.7386 28.3508 68.0421 28.3508C74.7755 28.3508 80.6228 30.8315 84.6983 35.0842C88.7737 39.514 90.7228 45.8929 90.0141 53.1578C89.6597 57.4105 88.4193 61.4859 86.4702 65.5614C82.572 73.535 80.0913 81.8631 78.8509 90.5456L78.3193 94.0894C78.3193 98.1649 74.9527 101 71.0544 101ZM55.8158 81.5087C58.2965 81.5087 60.6 83.1035 61.486 85.407L65.5614 95.507C66.4474 97.8105 68.5737 99.228 71.0544 99.228C74.0667 99.228 76.5474 96.9245 76.9018 94.0894L77.4334 90.5456C78.6737 81.6859 81.1544 73.0035 85.0527 65.0298C87.0018 61.1315 88.0649 57.2333 88.4193 53.1578C88.9509 46.2473 87.3562 40.5771 83.4579 36.3245C79.9141 32.2491 74.4211 30.1228 68.2193 30.1228C65.9158 30.1228 63.7895 30.4771 61.6632 31.3631C57.9421 32.9578 53.6895 32.9578 49.9684 31.3631C47.8421 30.4771 45.7158 30.1228 43.4123 30.1228C31.186 30.1228 23.0351 38.2736 23.0351 50.5C23.0351 55.2842 24.2755 60.2456 26.4018 64.8526C30.3 73.0035 32.9579 81.5087 34.1983 90.5456L34.7299 94.0894C35.0842 97.1017 37.5649 99.228 40.5772 99.228C43.0579 99.228 45.1842 97.8105 46.0702 95.507L50.1456 85.407C51.0316 83.1035 53.3351 81.5087 55.8158 81.5087Z" fill="#373737"/>
<path d="M41.6403 53.1579C39.1596 53.1579 37.2105 51.2087 37.2105 48.728C37.2105 46.2473 39.1596 44.2982 41.6403 44.2982C44.121 44.2982 46.0702 46.2473 46.0702 48.728C46.0702 51.2087 44.121 53.1579 41.6403 53.1579ZM41.6403 46.0701C40.2228 46.0701 38.9824 47.3105 38.9824 48.728C38.9824 50.1456 40.2228 51.3859 41.6403 51.3859C43.0579 51.3859 44.2982 50.1456 44.2982 48.728C44.2982 47.3105 43.0579 46.0701 41.6403 46.0701Z" fill="#373737"/>
<path d="M69.9912 53.1579C67.5105 53.1579 65.5614 51.2087 65.5614 48.728C65.5614 46.2473 67.5105 44.2982 69.9912 44.2982C72.4719 44.2982 74.4211 46.2473 74.4211 48.728C74.4211 51.2087 72.4719 53.1579 69.9912 53.1579ZM69.9912 46.0701C68.5737 46.0701 67.3333 47.3105 67.3333 48.728C67.3333 50.1456 68.5737 51.3859 69.9912 51.3859C71.4088 51.3859 72.6491 50.1456 72.6491 48.728C72.6491 47.3105 71.4088 46.0701 69.9912 46.0701Z" fill="#373737"/>
<path d="M7.97368 101H0.885965C0.354386 101 0 100.646 0 100.114V0.885965C0 0.354386 0.354386 0 0.885965 0H7.97368C8.50526 0 8.85965 0.354386 8.85965 0.885965V100.114C8.85965 100.646 8.50526 101 7.97368 101ZM1.77193 99.2281H7.08772V1.77193H1.77193V99.2281Z" fill="#373737"/>
<path d="M22.1491 30.1228H7.97367C7.44209 30.1228 7.08771 29.7684 7.08771 29.2368V0.885965C7.08771 0.354386 7.44209 0 7.97367 0H22.1491C22.6807 0 23.0351 0.354386 23.0351 0.885965C23.0351 1.41754 22.6807 1.77193 22.1491 1.77193H8.85964V28.3509H22.1491C22.6807 28.3509 23.0351 28.7053 23.0351 29.2368C23.0351 29.7684 22.6807 30.1228 22.1491 30.1228Z" fill="#373737"/>
<path d="M22.1491 23.0351H7.97367C7.44209 23.0351 7.08771 22.6808 7.08771 22.1492V7.97373C7.08771 7.44215 7.44209 7.08777 7.97367 7.08777H22.1491C22.6807 7.08777 23.0351 7.44215 23.0351 7.97373C23.0351 8.50531 22.6807 8.8597 22.1491 8.8597H8.85964V21.2632H22.1491C22.6807 21.2632 23.0351 21.6176 23.0351 22.1492C23.0351 22.6808 22.6807 23.0351 22.1491 23.0351Z" fill="#373737"/>
<path d="M22.1491 15.9473H7.97367C7.44209 15.9473 7.08771 15.593 7.08771 15.0614C7.08771 14.5298 7.44209 14.1754 7.97367 14.1754H22.1491C22.6807 14.1754 23.0351 14.5298 23.0351 15.0614C23.0351 15.593 22.6807 15.9473 22.1491 15.9473Z" fill="#373737"/>
<path d="M55.8158 70.8771C49.4368 70.8771 44.2982 65.7385 44.2982 59.3596C44.2982 58.828 44.6526 58.4736 45.1842 58.4736H66.4474C66.979 58.4736 67.3333 58.828 67.3333 59.3596C67.3333 65.7385 62.1947 70.8771 55.8158 70.8771ZM46.0702 60.2456C46.6018 65.207 50.6772 69.1052 55.8158 69.1052C60.9544 69.1052 65.0298 65.207 65.5614 60.2456H46.0702Z" fill="#373737"/>
</svg>
