<svg width="83" height="83" viewBox="0 0 83 83" fill="none" xmlns="http://www.w3.org/2000/svg">
<g clip-path="url(#clip0)">
<path d="M45.8684 83.0002H34.2193C33.7824 83.0002 33.4912 82.709 33.4912 82.2722V58.9739C33.4912 58.5371 33.7824 58.2458 34.2193 58.2458H45.8684C46.3052 58.2458 46.5965 58.5371 46.5965 58.9739V82.2722C46.5965 82.709 46.3052 83.0002 45.8684 83.0002ZM34.9474 81.5441H45.1403V59.702H34.9474V81.5441Z" fill="#373737"/>
<path d="M45.8684 59.7019H34.2193C33.7824 59.7019 33.4912 59.4107 33.4912 58.9739V53.1493C33.4912 49.509 36.4035 46.5967 40.0438 46.5967C43.6842 46.5967 46.5965 49.509 46.5965 53.1493V58.9739C46.5965 59.4107 46.3052 59.7019 45.8684 59.7019ZM34.9474 58.2458H45.1403V53.1493C45.1403 50.3826 42.8105 48.0528 40.0438 48.0528C37.2772 48.0528 34.9474 50.3826 34.9474 53.1493V58.2458Z" fill="#373737"/>
<path d="M12.3772 83.0002H0.72807C0.291228 83.0002 0 82.709 0 82.2722V58.9739C0 58.5371 0.291228 58.2458 0.72807 58.2458H12.3772C12.814 58.2458 13.1053 58.5371 13.1053 58.9739V82.2722C13.1053 82.709 12.814 83.0002 12.3772 83.0002ZM1.45614 81.5441H11.6491V59.702H1.45614V81.5441Z" fill="#373737"/>
<path d="M12.3772 59.7019H0.72807C0.291228 59.7019 0 59.4107 0 58.9739V53.1493C0 49.509 2.91228 46.5967 6.55263 46.5967C10.193 46.5967 13.1053 49.509 13.1053 53.1493V58.9739C13.1053 59.4107 12.814 59.7019 12.3772 59.7019ZM1.45614 58.2458H11.6491V53.1493C11.6491 50.3826 9.3193 48.0528 6.55263 48.0528C3.78596 48.0528 1.45614 50.3826 1.45614 53.1493V58.2458Z" fill="#373737"/>
<path d="M40.0438 24.7545C33.2 24.7545 27.6667 19.2212 27.6667 12.3773C27.6667 5.53346 33.2 0.00012207 40.0438 0.00012207C46.8877 0.00012207 52.421 5.53346 52.421 12.3773C52.421 19.2212 46.8877 24.7545 40.0438 24.7545ZM40.0438 1.45626C34.0737 1.45626 29.1228 6.40714 29.1228 12.3773C29.1228 18.3475 34.0737 23.2984 40.0438 23.2984C46.014 23.2984 50.9649 18.3475 50.9649 12.3773C50.9649 6.40714 46.014 1.45626 40.0438 1.45626Z" fill="#373737"/>
<path d="M40.0439 48.0527C39.607 48.0527 39.3158 47.7615 39.3158 47.3247V24.0264C39.3158 23.5896 39.607 23.2983 40.0439 23.2983C40.4807 23.2983 40.7719 23.5896 40.7719 24.0264V47.3247C40.7719 47.7615 40.4807 48.0527 40.0439 48.0527Z" fill="#373737"/>
<path d="M79.3596 83.0002H67.7105C67.2737 83.0002 66.9825 82.709 66.9825 82.2722V58.9739C66.9825 58.5371 67.2737 58.2458 67.7105 58.2458H79.3596C79.7965 58.2458 80.0877 58.5371 80.0877 58.9739V82.2722C80.0877 82.709 79.7965 83.0002 79.3596 83.0002ZM68.4386 81.5441H78.6316V59.702H68.4386V81.5441Z" fill="#373737"/>
<path d="M79.3596 59.7019H67.7105C67.2737 59.7019 66.9825 59.4107 66.9825 58.9739V53.1493C66.9825 49.509 69.8947 46.5967 73.5351 46.5967C77.1754 46.5967 80.0877 49.509 80.0877 53.1493V58.9739C80.0877 59.4107 79.7965 59.7019 79.3596 59.7019ZM68.4386 58.2458H78.6316V53.1493C78.6316 50.3826 76.3018 48.0528 73.5351 48.0528C70.7684 48.0528 68.4386 50.3826 68.4386 53.1493V58.2458Z" fill="#373737"/>
<path d="M73.5351 18.9299C73.0983 18.9299 72.807 18.6387 72.807 18.2019C72.807 17.765 73.0983 17.4738 73.5351 17.4738C77.9035 17.4738 81.5439 13.8335 81.5439 9.46503C81.5439 5.09661 77.9035 1.45626 73.5351 1.45626C69.1667 1.45626 65.5263 5.09661 65.5263 9.46503C65.5263 9.90188 65.2351 10.1931 64.7983 10.1931C64.3614 10.1931 64.0702 9.90188 64.0702 9.46503C64.0702 4.22293 68.293 0.00012207 73.5351 0.00012207C78.7772 0.00012207 83 4.22293 83 9.46503C83 14.7071 78.7772 18.9299 73.5351 18.9299Z" fill="#373737"/>
<path d="M73.5351 48.0527C73.0982 48.0527 72.807 47.7615 72.807 47.3246V18.2018C72.807 17.765 73.0982 17.4738 73.5351 17.4738C73.9719 17.4738 74.2631 17.765 74.2631 18.2018V47.3246C74.2631 47.7615 73.9719 48.0527 73.5351 48.0527Z" fill="#373737"/>
<path d="M6.55262 48.0527C6.11578 48.0527 5.82455 47.7615 5.82455 47.3246V18.2018C5.82455 18.0562 5.97017 17.765 5.97017 17.6194L14.1246 9.46497L5.97017 1.31058C5.82455 1.01935 5.82455 0.436895 5.97017 0.145667C6.11578 -0.145561 6.69824 -0.145561 6.98947 0.145667L15.7263 8.88251C16.0175 9.17374 16.0175 9.61058 15.7263 9.90181L7.28069 18.493V47.3246C7.28069 47.7615 6.98947 48.0527 6.55262 48.0527Z" fill="#373737"/>
</g>
<defs>
<clipPath id="clip0">
<rect width="83" height="83" fill="white"/>
</clipPath>
</defs>
</svg>
