<svg width="82" height="82" viewBox="0 0 82 82" fill="none" xmlns="http://www.w3.org/2000/svg">
<g clip-path="url(#clip0)">
<path d="M73.5123 41.7193H8.48774C8.34388 41.7193 8.20002 41.7193 8.05616 41.5755C2.15792 36.3965 -0.863133 28.4843 0.143885 20.572C1.58248 10.0702 10.0702 1.5825 20.572 0.143904C25.4632 -0.431535 30.3544 0.431623 34.6702 2.58952C38.6983 4.74741 43.3018 4.74741 47.3298 2.58952C51.6456 0.287763 56.5369 -0.575395 61.4281 0.143904C71.9298 1.5825 80.4176 10.0702 81.8562 20.572C82.8632 28.4843 79.986 36.2527 73.9439 41.5755C73.8 41.7193 73.6562 41.7193 73.5123 41.7193ZM8.77546 40.2807H73.2246C78.6912 35.3895 81.2807 28.0527 80.4176 20.7158C79.1228 10.9334 71.0667 2.87724 61.2842 1.5825C56.6807 1.00706 52.0772 1.72636 48.0491 3.88425C43.5895 6.18601 38.4105 6.18601 33.9509 3.88425C29.9228 1.72636 25.3193 1.00706 20.7158 1.5825C10.9334 2.87724 2.87722 10.9334 1.58248 20.7158C0.719323 28.0527 3.3088 35.3895 8.77546 40.2807Z" fill="#373737"/>
<path d="M52.5088 82.0001H29.4913C29.0597 82.0001 28.772 81.7124 28.772 81.2808L25.8948 41.0001C25.8948 40.8563 25.8948 40.5685 26.0386 40.4247C26.1825 40.2808 26.3264 40.137 26.6141 40.137H55.386C55.5299 40.137 55.8176 40.2808 55.9614 40.4247C56.1053 40.5685 56.1053 40.7124 56.1053 41.0001L53.2281 81.2808C53.2281 81.7124 52.9404 82.0001 52.5088 82.0001ZM30.2106 80.5615H51.7895L54.6667 41.7194H27.3334L30.2106 80.5615Z" fill="#373737"/>
<path d="M25.1755 50.3509C24.7439 50.3509 24.4562 50.0632 24.4562 49.6316C24.4562 49.2001 24.7439 48.9123 25.1755 48.9123L56.8246 46.0352C57.2562 46.0352 57.5439 46.3229 57.5439 46.7545C57.5439 47.186 57.2562 47.4738 56.8246 47.4738L25.1755 50.3509Z" fill="#373737"/>
<path d="M25.1755 58.9825C24.7439 58.9825 24.4562 58.6948 24.4562 58.2632C24.4562 57.8317 24.7439 57.5439 25.1755 57.5439L56.8246 54.6667C57.2562 54.6667 57.5439 54.9545 57.5439 55.386C57.5439 55.8176 57.2562 56.1053 56.8246 56.1053L25.1755 58.9825Z" fill="#373737"/>
<path d="M26.6141 67.6141C26.1825 67.6141 25.8948 67.3264 25.8948 66.8948C25.8948 66.4633 26.1825 66.1755 26.4702 66.1755L55.2421 63.2983C55.6737 63.2983 55.9614 63.5861 55.9614 63.8738C55.9614 64.3054 55.6737 64.5931 55.386 64.5931L26.6141 67.6141Z" fill="#373737"/>
<path d="M26.6141 76.2457C26.1825 76.2457 25.8948 75.958 25.8948 75.5264C25.8948 75.0948 26.1825 74.8071 26.4702 74.8071L55.2421 71.9299C55.6737 71.9299 55.9614 72.2177 55.9614 72.5054C55.9614 72.937 55.6737 73.2247 55.386 73.2247L26.6141 76.2457Z" fill="#373737"/>
</g>
<defs>
<clipPath id="clip0">
<rect width="82" height="82" fill="white"/>
</clipPath>
</defs>
</svg>
