<svg width="85" height="85" viewBox="0 0 85 85" fill="none" xmlns="http://www.w3.org/2000/svg">
<g clip-path="url(#clip0)">
<path d="M84.2544 19.386H57.4123C55.3246 19.386 53.6842 17.7456 53.6842 15.6579V3.72807C53.6842 1.64035 55.3246 0 57.4123 0H84.2544C84.7018 0 85 0.298246 85 0.745614V18.6404C85 19.0877 84.7018 19.386 84.2544 19.386ZM57.4123 1.49123C56.2193 1.49123 55.1754 2.53509 55.1754 3.72807V15.6579C55.1754 16.8509 56.2193 17.8947 57.4123 17.8947H83.5088V1.49123H57.4123Z" fill="#373737"/>
<path d="M72.3246 43.2457H57.4123C57.114 43.2457 56.9649 43.0965 56.8158 42.9474C56.6667 42.7983 56.6667 42.5 56.6667 42.3509L62.6316 18.4913C62.7807 18.193 63.079 17.8948 63.3772 17.8948H78.2895C78.5877 17.8948 78.7369 18.0439 78.886 18.193C79.0351 18.3421 79.0351 18.6404 79.0351 18.7895L73.0702 42.6492C72.9211 42.9474 72.6228 43.2457 72.3246 43.2457ZM58.307 41.7544H71.7281L77.3947 19.386H63.9737L58.307 41.7544Z" fill="#373737"/>
<path d="M64.8684 85C60.3947 85 56.6667 81.2719 56.6667 76.7983V42.5C56.6667 42.0526 56.9649 41.7544 57.4123 41.7544H72.3246C72.7719 41.7544 73.0702 42.0526 73.0702 42.5V76.7983C73.0702 81.2719 69.3421 85 64.8684 85ZM58.1579 43.2456V76.7983C58.1579 80.5263 61.1403 83.5088 64.8684 83.5088C68.5965 83.5088 71.5789 80.5263 71.5789 76.7983V43.2456H58.1579Z" fill="#373737"/>
<path d="M54.4298 14.9122H45.4825C45.0351 14.9122 44.7368 14.614 44.7368 14.1666V5.21925C44.7368 4.77188 45.0351 4.47363 45.4825 4.47363H54.4298C54.8772 4.47363 55.1754 4.77188 55.1754 5.21925V14.1666C55.1754 14.614 54.8772 14.9122 54.4298 14.9122ZM46.2281 13.421H53.6842V5.96486H46.2281V13.421Z" fill="#373737"/>
<path d="M45.4825 10.4385H36.5351C36.0877 10.4385 35.7895 10.1402 35.7895 9.69288C35.7895 9.24551 36.0877 8.94727 36.5351 8.94727H45.4825C45.9298 8.94727 46.2281 9.24551 46.2281 9.69288C46.2281 10.1402 45.9298 10.4385 45.4825 10.4385Z" fill="#373737"/>
<path d="M21.4737 85.0002C18.193 85.0002 15.3596 82.6142 14.614 79.4827L10.1404 65.9125C8.79825 61.737 4.92105 59.0528 0.596491 59.0528C0.298246 58.9037 0 58.6055 0 58.1581C0 57.7107 0.298246 57.4125 0.745614 57.4125C5.81579 57.4125 10.1404 60.5441 11.6316 65.316L16.1053 79.0353C16.7018 81.7195 18.9386 83.509 21.4737 83.509C24.1579 83.509 26.5439 81.5704 26.8421 78.8862L29.6754 59.0528C30.5702 53.0879 32.9561 47.2721 36.9825 41.6055C40.7105 36.3862 42.3509 29.8248 41.4561 23.4125C39.9649 11.93 30.4211 2.83352 18.7895 1.78966C15.5088 1.49142 12.2281 1.78966 9.24561 2.6844C6.41228 3.28089 3.57895 3.72826 0.745614 3.72826C0.298246 3.72826 0 3.43002 0 2.98265C0 2.53528 0.298246 2.23703 0.745614 2.23703C3.42982 2.23703 6.26316 1.78966 8.79825 1.04405C12.0789 0.00019107 15.5088 -0.298055 18.9386 0.149314C31.1667 1.3423 41.307 11.0353 42.9474 23.1142C43.8421 29.9739 42.2018 36.8335 38.1754 42.3511C34.2982 47.8686 31.9123 53.5353 31.0175 59.2019L28.3333 79.0353C27.886 82.4651 24.9035 85.0002 21.4737 85.0002Z" fill="#373737"/>
<path d="M35.6404 45.9301H35.4912C31.1667 44.7371 28.3333 40.86 28.3333 36.5354C28.3333 35.6407 28.4825 34.7459 28.6316 33.8512C21.4737 32.36 16.4035 25.9477 16.4035 18.6407C16.4035 11.1845 21.6228 4.77223 28.9298 3.28101C29.0789 3.28101 29.2281 3.28101 29.3772 3.43013C36.8333 7.60557 41.9035 14.9126 42.9474 23.1143C43.8421 29.974 42.2018 36.8336 38.1754 42.3512C37.4298 43.2459 36.8333 44.2898 36.0877 45.4828C36.0877 45.781 35.7895 45.9301 35.6404 45.9301ZM28.9298 4.77223C22.5175 6.26346 17.8947 11.9301 17.8947 18.6407C17.8947 25.6494 22.9649 31.4652 29.8246 32.6582C29.9737 32.6582 30.2719 32.8073 30.4211 32.9564C30.5702 33.1056 30.5702 33.4038 30.4211 33.5529C30.1228 34.4477 29.8246 35.4915 29.8246 36.5354C29.8246 39.9652 32.0614 43.0968 35.193 44.2898C35.7895 43.2459 36.386 42.3512 36.9825 41.6056C40.7105 36.3863 42.3509 29.8249 41.4561 23.4126C40.4123 15.6582 35.7895 8.79855 28.9298 4.77223Z" fill="#373737"/>
</g>
<defs>
<clipPath id="clip0">
<rect width="85" height="85" fill="white"/>
</clipPath>
</defs>
</svg>
