<svg width="110" height="71" viewBox="0 0 110 71" fill="none" xmlns="http://www.w3.org/2000/svg">
<g clip-path="url(#clip0)">
<path d="M55 36.4595C53.0702 36.4595 51.1404 36.4595 49.2105 36.4595C48.6316 36.4595 48.2456 36.0757 48.2456 35.5001C48.2456 33.9649 46.8947 32.6217 45.3509 32.6217C43.807 32.6217 42.6491 33.773 42.4561 35.3082C42.4561 35.8839 41.8772 36.2676 41.4912 36.2676C37.8246 36.0757 34.1579 35.692 30.6842 35.5001C30.4912 35.5001 30.1053 35.3082 30.1053 35.1163C29.9123 34.9244 29.9123 34.5406 29.9123 34.3487C29.9123 34.1568 29.9123 33.9649 29.9123 33.773C29.9123 32.2379 28.5614 30.8947 27.0175 30.8947C25.4737 30.8947 24.3158 32.046 24.1228 33.5812C24.1228 33.773 23.9298 34.1568 23.7368 34.3487C23.5439 34.5406 23.3509 34.5406 22.9649 34.5406C14.4737 32.8136 0 29.7433 0 23.9866C0 23.4109 0.385965 23.0271 0.964912 23.0271C1.54386 23.0271 1.92982 23.4109 1.92982 23.9866C1.92982 26.2893 7.33333 29.7433 22.386 32.2379C22.9649 30.319 24.8947 28.7839 27.0175 28.7839C29.7193 28.7839 31.8421 30.8947 31.8421 33.3893C34.7368 33.773 37.6316 33.9649 40.7193 34.1568C41.2982 32.2379 43.2281 30.7028 45.3509 30.7028C47.6667 30.7028 49.5965 32.4298 49.9825 34.5406C53.2632 34.5406 56.5439 34.5406 59.8246 34.5406C60.2105 32.4298 62.3333 30.7028 64.4561 30.7028C66.5789 30.7028 68.5088 32.046 69.0877 34.1568C72.1754 33.9649 75.0702 33.773 77.9649 33.3893C77.9649 30.8947 80.0877 28.7839 82.7895 28.7839C84.9123 28.7839 86.8421 30.1271 87.4211 32.2379C102.474 29.7433 107.877 26.2893 107.877 23.9866C107.877 23.4109 108.263 23.0271 108.842 23.0271C109.421 23.0271 109.807 23.4109 109.807 23.9866C109.807 29.7433 95.3333 32.8136 86.8421 34.1568C86.6491 34.1568 86.2632 34.1568 86.0702 33.9649C85.8772 33.773 85.6842 33.5812 85.6842 33.1974C85.6842 31.8541 84.5263 30.7028 82.9825 30.7028C81.4386 30.7028 80.0877 32.046 80.0877 33.5812C80.0877 33.773 80.0877 33.9649 80.0877 34.1568C80.0877 34.3487 80.0877 34.7325 79.8947 34.9244C79.7018 35.1163 79.5088 35.3082 79.3158 35.3082C75.8421 35.692 72.1754 35.8839 68.5088 36.0757C67.9298 36.0757 67.5439 35.692 67.5439 35.1163C67.3509 33.5812 66.193 32.4298 64.6491 32.4298C63.1053 32.4298 61.7544 33.773 61.7544 35.3082C61.7544 35.8839 61.3684 36.2676 60.7895 36.2676C58.8596 36.4595 56.9298 36.4595 55 36.4595Z" fill="#373737"/>
<path d="M64.6491 40.2972C61.9474 40.2972 59.8246 38.1864 59.8246 35.4999C59.8246 32.8134 61.9474 30.7026 64.6491 30.7026C67.3509 30.7026 69.4737 32.8134 69.4737 35.4999C69.4737 38.1864 67.3509 40.2972 64.6491 40.2972ZM64.6491 32.6216C63.1053 32.6216 61.7544 33.9648 61.7544 35.4999C61.7544 37.0351 63.1053 38.3783 64.6491 38.3783C66.193 38.3783 67.5439 37.0351 67.5439 35.4999C67.5439 33.9648 66.193 32.6216 64.6491 32.6216Z" fill="#373737"/>
<path d="M45.3509 40.2972C42.6492 40.2972 40.5264 38.1864 40.5264 35.4999C40.5264 32.8134 42.6492 30.7026 45.3509 30.7026C48.0527 30.7026 50.1755 32.8134 50.1755 35.4999C50.1755 38.1864 48.0527 40.2972 45.3509 40.2972ZM45.3509 32.6216C43.8071 32.6216 42.4562 33.9648 42.4562 35.4999C42.4562 37.0351 43.8071 38.3783 45.3509 38.3783C46.8948 38.3783 48.2457 37.0351 48.2457 35.4999C48.2457 33.9648 46.8948 32.6216 45.3509 32.6216Z" fill="#373737"/>
<path d="M27.0175 38.3785C24.3157 38.3785 22.1929 36.2677 22.1929 33.5812C22.1929 30.8947 24.3157 28.7839 27.0175 28.7839C29.7192 28.7839 31.8421 30.8947 31.8421 33.5812C31.8421 36.2677 29.7192 38.3785 27.0175 38.3785ZM27.0175 30.7029C25.4736 30.7029 24.1228 32.0461 24.1228 33.5812C24.1228 35.1164 25.4736 36.4596 27.0175 36.4596C28.5614 36.4596 29.9122 35.1164 29.9122 33.5812C29.9122 32.0461 28.5614 30.7029 27.0175 30.7029Z" fill="#373737"/>
<path d="M82.9825 38.3785C80.2807 38.3785 78.1579 36.2677 78.1579 33.5812C78.1579 30.8947 80.2807 28.7839 82.9825 28.7839C85.6842 28.7839 87.807 30.8947 87.807 33.5812C87.807 36.2677 85.6842 38.3785 82.9825 38.3785ZM82.9825 30.7029C81.4386 30.7029 80.0877 32.0461 80.0877 33.5812C80.0877 35.1164 81.4386 36.4596 82.9825 36.4596C84.5263 36.4596 85.8772 35.1164 85.8772 33.5812C85.8772 32.0461 84.5263 30.7029 82.9825 30.7029Z" fill="#373737"/>
<path d="M35.7018 46.4379C35.7018 46.4379 35.5088 46.4379 35.7018 46.4379C27.9825 45.0946 21.4211 42.9838 16.0176 40.1054C15.6316 39.9136 15.4386 39.7217 15.4386 39.3379V31.6622C15.4386 25.9055 20.2632 21.1082 26.0526 21.1082C31.8421 21.1082 36.6667 25.9055 36.6667 31.6622V45.4784C36.6667 45.6703 36.4737 46.0541 36.2807 46.246C36.0877 46.246 35.8948 46.4379 35.7018 46.4379ZM17.3684 38.7622C22.386 41.2568 28.1755 43.1757 34.7369 44.3271V31.6622C34.7369 26.8649 30.8772 23.0271 26.0526 23.0271C21.2281 23.0271 17.3684 26.8649 17.3684 31.6622V38.7622Z" fill="#373737"/>
<path d="M55 47.973C48.0526 47.973 41.4912 47.3973 35.5088 46.4379C35.1228 46.4379 34.7368 46.0541 34.7368 45.4784V31.6622C34.7368 25.9055 39.5614 21.1082 45.3509 21.1082C51.1404 21.1082 55.9649 25.9055 55.9649 31.6622V47.0136C55.9649 47.5892 55.579 47.973 55 47.973ZM36.6667 44.7109C42.0702 45.6703 47.8597 46.0541 54.0351 46.0541V31.6622C54.0351 26.8649 50.1754 23.0271 45.3509 23.0271C40.5263 23.0271 36.6667 26.8649 36.6667 31.6622V44.7109Z" fill="#373737"/>
<path d="M74.2982 46.4379C74.1052 46.4379 73.9123 46.4379 73.7193 46.246C73.5263 46.0541 73.3333 45.6703 73.3333 45.4784V31.6622C73.3333 25.9055 78.1579 21.1082 83.9473 21.1082C89.7368 21.1082 94.5614 25.9055 94.5614 31.6622V39.3379C94.5614 39.7217 94.3684 40.1054 93.9824 40.1054C88.5789 42.9838 82.0175 45.0946 74.2982 46.4379C74.4912 46.4379 74.2982 46.4379 74.2982 46.4379ZM83.9473 23.0271C79.1228 23.0271 75.2631 26.8649 75.2631 31.6622V44.3271C81.8245 43.1757 87.614 41.2568 92.6316 38.7622V31.6622C92.6316 26.8649 88.7719 23.0271 83.9473 23.0271Z" fill="#373737"/>
<path d="M55 47.973C54.4211 47.973 54.0351 47.5892 54.0351 47.0136V31.6622C54.0351 25.9055 58.8597 21.1082 64.6491 21.1082C70.4386 21.1082 75.2632 25.9055 75.2632 31.6622V45.4784C75.2632 45.8622 74.8772 46.4379 74.4912 46.4379C68.5088 47.3973 61.9474 47.973 55 47.973ZM64.6491 23.0271C59.8246 23.0271 55.9649 26.8649 55.9649 31.6622V46.0541C62.1404 46.0541 67.9298 45.4784 73.3333 44.7109V31.6622C73.3333 26.8649 69.4737 23.0271 64.6491 23.0271Z" fill="#373737"/>
<path d="M55 71.0001C24.7018 71.0001 0 49.892 0 23.9866C0 23.6028 0.385965 23.219 0.77193 23.0271C1.15789 23.0271 1.73684 23.219 1.92982 23.6028C7.91228 37.6109 27.7895 46.0541 55 46.0541C82.2105 46.0541 102.088 37.6109 108.07 23.6028C108.263 23.219 108.649 23.0271 109.228 23.0271C109.614 23.0271 110 23.6028 110 23.9866C110 49.892 85.2982 71.0001 55 71.0001ZM2.12281 28.2082C4.63158 51.2352 27.4035 69.0812 55 69.0812C82.5965 69.0812 105.368 51.2352 107.877 28.2082C99.7719 40.873 80.8596 47.973 55 47.973C29.1404 47.973 10.2281 40.873 2.12281 28.2082Z" fill="#373737"/>
<path d="M16.4035 40.2974C16.2105 40.2974 16.0175 40.2974 16.0175 40.1055C9.26315 36.6514 4.2456 32.046 1.35087 26.673C1.15789 26.4811 1.15789 26.0974 1.35087 25.9055C1.73683 24.7541 2.31578 23.7947 3.08771 23.0271C3.28069 22.8352 3.47368 22.8352 3.66666 22.8352L11.386 22.0676C11.5789 22.0676 11.7719 22.0676 11.9649 22.0676C15.2456 23.6028 17.3684 27.0568 17.3684 30.7028V39.3379C17.3684 39.7217 17.1754 39.9136 16.9824 40.1055C16.7895 40.1055 16.5965 40.2974 16.4035 40.2974ZM3.08771 26.0974C5.78946 30.7028 9.8421 34.5406 15.4386 37.6109V30.7028C15.4386 27.8244 13.8947 25.3298 11.193 23.9865L4.05262 24.7541C3.66666 25.1379 3.28069 25.5217 3.08771 26.0974Z" fill="#373737"/>
<path d="M93.5964 40.2972C93.4035 40.2972 93.2105 40.2972 93.0175 40.1053C92.8245 39.9134 92.6315 39.5296 92.6315 39.3377V30.7026C92.6315 27.0567 94.7543 23.6026 98.035 22.0675C98.228 22.0675 98.421 21.8756 98.614 22.0675L106.333 22.835C106.526 22.835 106.719 23.0269 106.912 23.0269C107.684 23.7945 108.263 24.7539 108.649 25.9053C108.649 26.0972 108.649 26.481 108.649 26.6729C105.561 32.0458 100.737 36.6512 93.9824 40.1053C93.9824 40.1053 93.7894 40.2972 93.5964 40.2972ZM98.807 23.9864C96.2982 25.3296 94.5614 27.8242 94.5614 30.7026V37.6107C100.158 34.5404 104.21 30.5107 106.912 26.0972C106.719 25.5215 106.333 25.1377 105.947 24.5621L98.807 23.9864Z" fill="#373737"/>
<path d="M109.035 24.9459L76.807 21.6838C72.5614 21.3 68.3158 21.4919 64.2632 22.6432C58.0877 24.1784 51.7193 24.1784 45.5439 22.6432C41.4912 21.6838 37.2456 21.3 33 21.6838L0.964912 24.9459C0.578947 24.9459 0.192982 24.7541 0 24.3703C0 23.9865 0 23.6027 0.192982 23.4108C1.15789 22.4513 22.193 0 39.5614 0C46.7018 0 51.7193 1.15135 55 3.64595C58.2807 1.15135 63.2982 0 70.4386 0C87.807 0 108.842 22.4513 109.807 23.4108C110 23.7946 110.193 24.1784 110 24.5622C109.807 24.7541 109.421 24.9459 109.035 24.9459ZM39.5614 1.91892C25.8596 1.91892 9.07018 17.2703 3.47368 22.8351L33 19.9568C37.4386 19.573 41.8772 19.7649 46.1228 20.9162C51.9123 22.4513 58.0877 22.4513 63.8772 20.9162C68.1228 19.7649 72.5614 19.573 77 19.9568L106.526 22.8351C100.93 17.2703 83.9474 1.91892 70.4386 1.91892C63.2982 1.91892 58.4737 3.07027 55.5789 5.56486C55.193 5.94865 54.614 5.94865 54.2281 5.56486C51.5263 3.07027 46.7018 1.91892 39.5614 1.91892Z" fill="#373737"/>
</g>
<defs>
<clipPath id="clip0">
<rect width="110" height="71" fill="white"/>
</clipPath>
</defs>
</svg>
