<svg width="80" height="80" viewBox="0 0 80 80" fill="none" xmlns="http://www.w3.org/2000/svg">
<path d="M60.7719 80C58.1053 80 55.8596 78.3158 55.0175 75.7895L50.5263 62.1754C48.9825 57.6842 44.7719 54.5965 40.1404 54.5965C35.5088 54.5965 31.1579 57.6842 29.7544 62.1754L24.9825 75.7895C24.1404 78.3158 21.8947 80 19.2281 80C16.2807 80 13.7544 77.8947 13.193 74.9474L10.1053 56.9825C9.26316 52.3509 7.57895 47.5789 5.05263 42.9474C1.82456 36.9123 0 28.3509 0 23.1579C0 10.386 10.386 0 23.1579 0C26.9474 0 30.7368 0.982456 34.1053 2.66667C37.7544 4.63158 42.386 4.63158 46.0351 2.66667C49.2632 0.982456 53.0526 0 56.8421 0C69.614 0 80 10.386 80 23.1579C80 28.3509 78.1754 36.9123 74.9474 42.9474C72.4211 47.7193 70.5965 52.3509 69.8947 56.9825L66.807 74.9474C66.2456 77.8947 63.7193 80 60.7719 80ZM40 53.3333C45.3333 53.3333 50.1053 56.7018 51.7895 61.7544L56.2807 75.3684C56.9825 77.3333 58.6667 78.5965 60.7719 78.5965C63.0175 78.5965 64.9825 76.9123 65.4035 74.6667L68.4912 56.7018C69.3333 51.9298 71.1579 47.0175 73.8246 42.2456C76.9123 36.4912 78.5965 28.0702 78.5965 23.1579C78.5965 11.2281 68.7719 1.40351 56.8421 1.40351C53.3333 1.40351 49.6842 2.24561 46.5965 3.92982C42.5263 6.17544 37.4737 6.17544 33.4035 3.92982C30.3158 2.24561 26.6667 1.40351 23.1579 1.40351C11.2281 1.40351 1.40351 11.2281 1.40351 23.1579C1.40351 28.0702 3.08772 36.4912 6.31579 42.2456C8.98246 47.1579 10.807 51.9298 11.6491 56.7018L14.7368 74.6667C15.1579 76.9123 17.1228 78.5965 19.3684 78.5965C21.3333 78.5965 23.1579 77.3333 23.8596 75.3684L28.3509 61.7544C29.8947 56.7018 34.6667 53.3333 40 53.3333Z" fill="#373737"/>
<path d="M32.9825 40.7015C32.8421 40.7015 32.5614 40.7015 32.4211 40.5611C32.1404 40.2804 32.1404 39.8594 32.4211 39.5787L45.8947 26.105L32.4211 12.6313C32.1404 12.3506 32.1404 11.9295 32.4211 11.6488L39.4386 4.6313C39.7193 4.3506 40.1403 4.3506 40.4211 4.6313C40.7018 4.912 40.7018 5.33306 40.4211 5.61376L33.9649 12.0699L47.4386 25.5436C47.7193 25.8243 47.7193 26.2453 47.4386 26.526L33.4035 40.5611C33.4035 40.7015 33.1228 40.7015 32.9825 40.7015Z" fill="#373737"/>
<path d="M47.0175 40.702C46.8772 40.702 46.5965 40.702 46.4561 40.5616L39.4386 33.5441C39.1579 33.2634 39.1579 32.8423 39.4386 32.5616C39.7193 32.2809 40.1403 32.2809 40.421 32.5616L47.4386 39.5791C47.7193 39.8598 47.7193 40.2809 47.4386 40.5616C47.4386 40.702 47.1579 40.702 47.0175 40.702Z" fill="#373737"/>
</svg>
