<svg width="32" height="32" viewBox="0 0 32 32" fill="none" xmlns="http://www.w3.org/2000/svg">
<path d="M31.5 16C31.5 24.5604 24.5604 31.5 16 31.5C7.43956 31.5 0.5 24.5604 0.5 16C0.5 7.43956 7.43956 0.5 16 0.5C24.5604 0.5 31.5 7.43956 31.5 16ZM14.2071 24.2071L25.7071 12.7071C26.0976 12.3166 26.0976 11.6834 25.7071 11.2929L24.2929 9.87875C23.9024 9.48819 23.2692 9.48819 22.8787 9.87875L13.5 19.2574L9.12131 14.8787C8.73081 14.4882 8.09763 14.4882 7.70706 14.8787L6.29287 16.2929C5.90237 16.6834 5.90237 17.3166 6.29287 17.7071L12.7929 24.2071C13.1834 24.5976 13.8166 24.5976 14.2071 24.2071V24.2071Z" fill="#16DE05"/>
</svg>
