<svg width="32" height="33" viewBox="0 0 32 33" fill="none" xmlns="http://www.w3.org/2000/svg">
<g clip-path="url(#clip0)">
<path d="M31.5 16.9038C31.5 25.4661 24.5598 32.4038 16 32.4038C7.44019 32.4038 0.5 25.4661 0.5 16.9038C0.5 8.3465 7.44019 1.40381 16 1.40381C24.5598 1.40381 31.5 8.3465 31.5 16.9038ZM16 20.0288C14.4122 20.0288 13.125 21.316 13.125 22.9038C13.125 24.4916 14.4122 25.7788 16 25.7788C17.5878 25.7788 18.875 24.4916 18.875 22.9038C18.875 21.316 17.5878 20.0288 16 20.0288ZM13.2704 9.69468L13.7341 18.1947C13.7557 18.5924 14.0846 18.9038 14.4829 18.9038H17.5171C17.9154 18.9038 18.2443 18.5924 18.2659 18.1947L18.7296 9.69468C18.753 9.26506 18.4109 8.90381 17.9807 8.90381H14.0192C13.589 8.90381 13.247 9.26506 13.2704 9.69468V9.69468Z" fill="#F2763B"/>
</g>
<defs>
<clipPath id="clip0">
<rect width="32" height="32" fill="white" transform="translate(0 0.903809)"/>
</clipPath>
</defs>
</svg>
