<svg width="215" height="265" viewBox="0 0 215 265" fill="none" xmlns="http://www.w3.org/2000/svg">
<path fill-rule="evenodd" clip-rule="evenodd" d="M2.98053 221.374V168.266H29.2858V172.83H7.87649V189.427H29.2858V193.99H7.87649V216.893H29.2858V221.374H2.98053ZM71.7909 223.283L53.1892 180.879L49.1371 221.374H44.1582L51.3776 166.026L71.708 213.325L92.7852 166.026L99.6728 221.374H94.6939L90.7936 180.879L71.7909 223.283ZM115.555 221.374V168.266H120.451V221.374H115.555ZM138.062 221.374V168.266H142.958V216.893H161.13V221.374H138.062ZM192.046 221.374V196.978L174.44 168.266H180.263L194.549 192.663L208.808 168.266H214.271L196.859 196.978V221.374H192.046ZM12.2605 242.566C10.2401 242.566 8.4791 242.988 6.97753 243.838C5.48191 244.676 4.33616 245.87 3.54614 247.414C2.72581 248.982 2.31572 250.785 2.31572 252.836C2.31572 255.996 3.22048 258.499 5.02955 260.332C6.83884 262.166 9.21478 263.082 12.1579 263.082C14.7391 263.082 17.2116 262.166 19.5756 260.326L19.5455 262.793C18.4781 263.438 17.3201 263.95 16.0718 264.312C14.7873 264.674 13.4484 264.855 12.0494 264.855C10.2222 264.855 8.39469 264.517 6.57945 263.848C4.77634 263.173 3.23247 261.942 1.95396 260.157C0.651326 258.372 0 255.972 0 252.957C0 250.737 0.422214 248.699 1.26651 246.841C2.08662 245.002 3.42536 243.519 5.28298 242.391C7.14036 241.251 9.48021 240.684 12.3085 240.684C14.9079 240.684 17.3926 241.504 19.7566 243.151L19.6842 245.46C18.8158 244.713 17.8027 244.043 16.6447 243.44C15.4628 242.855 14.0033 242.566 12.2605 242.566ZM48.4059 264.349V241.191H50.5408V262.395H58.4652V264.349H48.4059ZM86.5776 264.349V241.191H88.7126V264.349H86.5776ZM116.994 264.349V240.214L133.385 259.651V241.191H135.339V265L118.984 245.635V264.349H116.994ZM163.705 264.349V241.191H165.84V264.349H163.705ZM205.839 242.566C203.819 242.566 202.058 242.988 200.556 243.838C199.061 244.676 197.915 245.87 197.125 247.414C196.304 248.982 195.894 250.785 195.894 252.836C195.894 255.996 196.799 258.499 198.608 260.332C200.417 262.166 202.793 263.082 205.737 263.082C208.318 263.082 210.79 262.166 213.154 260.326L213.124 262.793C212.057 263.438 210.899 263.95 209.65 264.312C208.366 264.674 207.027 264.855 205.628 264.855C203.801 264.855 201.973 264.517 200.158 263.848C198.355 263.173 196.811 261.942 195.533 260.157C194.23 258.372 193.579 255.972 193.579 252.957C193.579 250.737 194.001 248.699 194.845 246.841C195.665 245.002 197.004 243.519 198.862 242.391C200.719 241.251 203.059 240.684 205.887 240.684C208.486 240.684 210.971 241.504 213.335 243.151L213.263 245.46C212.394 244.713 211.381 244.043 210.223 243.44C209.041 242.855 207.582 242.566 205.839 242.566Z" fill="#313131"/>
<path fill-rule="evenodd" clip-rule="evenodd" d="M114.597 100.71H71.2919V0H114.31V12.9483H93.4481V40.14H112.271V52.3691H93.4481V87.7616H114.597V100.71Z" fill="#313131"/>
<path fill-rule="evenodd" clip-rule="evenodd" d="M101.259 131.217H142.694V30.5073H120.538V118.269H101.259V131.217Z" fill="#313131"/>
</svg>
