<svg width="57" height="70" viewBox="0 0 57 70" fill="none" xmlns="http://www.w3.org/2000/svg">
<path fill-rule="evenodd" clip-rule="evenodd" d="M0.78731 58.4763V44.4477H7.73586V45.6533H2.08058V50.0372H7.73586V51.2428H2.08058V57.2926H7.73586V58.4763H0.78731ZM18.9636 58.9804L14.05 47.7795L12.9796 58.4763H11.6644L13.5714 43.8559L18.9417 56.3501L24.5093 43.8559L26.3287 58.4763H25.0135L23.9832 47.7795L18.9636 58.9804ZM30.5239 58.4763V44.4477H31.8172V58.4763H30.5239ZM36.4691 58.4763V44.4477H37.7624V57.2926H42.5628V58.4763H36.4691ZM50.7291 58.4763V52.0319L46.0785 44.4477H47.6166L51.3903 50.8921L55.1569 44.4477H56.5999L52.0005 52.0319V58.4763H50.7291ZM3.23863 64.074C2.70493 64.074 2.23976 64.1855 1.84312 64.4101C1.44805 64.6315 1.1454 64.9469 0.936716 65.3547C0.720026 65.7689 0.6117 66.2452 0.6117 66.7869C0.6117 67.6216 0.850694 68.2827 1.32856 68.767C1.80649 69.2513 2.43409 69.4934 3.21153 69.4934C3.89334 69.4934 4.54646 69.2513 5.17092 68.7654L5.16296 69.4169C4.88101 69.5874 4.57513 69.7228 4.24538 69.8184C3.90608 69.914 3.5524 69.9618 3.18286 69.9618C2.70019 69.9618 2.21747 69.8725 1.73797 69.6958C1.26167 69.5173 0.853861 69.1923 0.516141 68.7208C0.172048 68.2493 0 67.6152 0 66.8187C0 66.2325 0.111528 65.694 0.334551 65.2034C0.551182 64.7175 0.904813 64.3257 1.3955 64.0278C1.88613 63.7267 2.50421 63.5769 3.25131 63.5769C3.93793 63.5769 4.59427 63.7936 5.21874 64.2285L5.1996 64.8386C4.97021 64.6411 4.7026 64.4642 4.39672 64.305C4.08452 64.1504 3.69899 64.074 3.23863 64.074ZM12.7865 69.8279V63.7107H13.3504V69.3118H15.4436V69.8279H12.7865ZM22.8696 69.8279V63.7107H23.4335V69.8279H22.8696ZM30.904 69.8279V63.4527L35.2339 68.587V63.7107H35.75V70L31.4297 64.8848V69.8279H30.904ZM43.2429 69.8279V63.7107H43.8068V69.8279H43.2429ZM54.3726 64.074C53.8389 64.074 53.3737 64.1855 52.9771 64.4101C52.582 64.6315 52.2794 64.9469 52.0707 65.3547C51.854 65.7689 51.7457 66.2452 51.7457 66.7869C51.7457 67.6216 51.9847 68.2827 52.4625 68.767C52.9405 69.2513 53.5681 69.4934 54.3455 69.4934C55.0273 69.4934 55.6804 69.2513 56.3049 68.7654L56.2969 69.4169C56.015 69.5874 55.7091 69.7228 55.3794 69.8184C55.0401 69.914 54.6864 69.9618 54.3168 69.9618C53.8342 69.9618 53.3514 69.8725 52.8719 69.6958C52.3956 69.5173 51.9878 69.1923 51.6501 68.7208C51.306 68.2493 51.134 67.6152 51.134 66.8187C51.134 66.2325 51.2455 65.694 51.4685 65.2034C51.6852 64.7175 52.0388 64.3257 52.5295 64.0278C53.0201 63.7267 53.6382 63.5769 54.3853 63.5769C55.0719 63.5769 55.7282 63.7936 56.3527 64.2285L56.3336 64.8386C56.1042 64.6411 55.8366 64.4642 55.5307 64.305C55.2185 64.1504 54.833 64.074 54.3726 64.074Z" fill="#313131"/>
<path fill-rule="evenodd" clip-rule="evenodd" d="M30.2711 26.6026H18.8319V0H30.195V3.42032H24.6845V10.603H29.6567V13.8334H24.6845V23.1823H30.2711V26.6026Z" fill="#313131"/>
<path fill-rule="evenodd" clip-rule="evenodd" d="M26.7476 34.6612H37.6927V8.05853H31.8401V31.2409H26.7476V34.6612Z" fill="#313131"/>
</svg>
