<svg width="24" height="24" viewBox="0 0 24 24" fill="none" xmlns="http://www.w3.org/2000/svg">
<path fill-rule="evenodd" clip-rule="evenodd" d="M6.86201 11.8047C6.73702 11.6796 6.66681 11.5101 6.66681 11.3333C6.66681 11.1566 6.73702 10.987 6.86201 10.862L11.5289 6.19533C11.6539 6.07035 11.8235 6.00014 12.0003 6.00014C12.177 6.00014 12.3466 6.07035 12.4716 6.19533L17.1385 10.862C17.26 10.9877 17.3272 11.1561 17.3256 11.3309C17.3241 11.5057 17.254 11.6729 17.1304 11.7965C17.0068 11.9202 16.8396 11.9903 16.6648 11.9918C16.49 11.9933 16.3215 11.9261 16.1958 11.8047L12.667 8.276L12.667 17.3333C12.667 17.5101 12.5967 17.6797 12.4717 17.8047C12.3467 17.9298 12.1771 18 12.0003 18C11.8234 18 11.6539 17.9298 11.5288 17.8047C11.4038 17.6797 11.3336 17.5101 11.3336 17.3333L11.3336 8.276L7.80472 11.8047C7.6797 11.9296 7.51015 11.9999 7.33337 11.9999C7.15658 11.9999 6.98703 11.9296 6.86201 11.8047Z" fill="#fff"/>
</svg>
